<?xml version="1.0" encoding="UTF-8"?>
<svg width="40px" height="40px" viewBox="0 0 40 40" version="1.1" xmlns="http://www.w3.org/2000/svg" xmlns:xlink="http://www.w3.org/1999/xlink">
    <title>github_选中_icon</title>
    <defs>
        <circle id="path-1" cx="19.8529412" cy="19.8529412" r="15.6862745"></circle>
        <filter x="-1.6%" y="-1.6%" width="103.2%" height="106.4%" filterUnits="objectBoundingBox" id="filter-2">
            <feOffset dx="0" dy="1" in="SourceAlpha" result="shadowOffsetOuter1"></feOffset>
            <feColorMatrix values="0 0 0 0 0   0 0 0 0 0   0 0 0 0 0  0 0 0 0.1 0" type="matrix" in="shadowOffsetOuter1"></feColorMatrix>
        </filter>
    </defs>
    <g id="设计稿" stroke="none" stroke-width="1" fill="none" fill-rule="evenodd">
        <g id="画板" transform="translate(-327, -47)">
            <g id="github_选中_icon" transform="translate(327, 47)">
                <circle id="椭圆形" stroke-opacity="0.05" stroke="#000000" stroke-width="0.655524037" fill-opacity="0.361833479" fill="#F1F2F8" cx="20" cy="20" r="19.672238"></circle>
                <g id="椭圆形">
                    <use fill="black" fill-opacity="1" filter="url(#filter-2)" xlink:href="#path-1"></use>
                    <use fill="#FFFFFF" fill-rule="evenodd" xlink:href="#path-1"></use>
                </g>
                <g id="github-filledd" opacity="0.849999964" transform="translate(7.5, 7.5)" fill="#000000" fill-rule="nonzero">
                    <rect id="矩形" opacity="0" x="0" y="0" width="25" height="25"></rect>
                    <path d="M12.4902344,1.86279205 C6.45263672,1.86035156 1.5625,6.74804687 1.5625,12.7807617 C1.5625,17.5512695 4.62158203,21.6064453 8.88183594,23.0957031 C9.45556641,23.2397461 9.36767578,22.8320312 9.36767578,22.5537109 L9.36767578,20.6616211 C6.0546875,21.0498047 5.92041016,18.8574219 5.69824219,18.4912109 C5.24902344,17.7246094 4.18701172,17.5292969 4.50439453,17.1630859 C5.25878906,16.7749023 6.02783203,17.2607422 6.91894531,18.5766602 C7.56347656,19.53125 8.82080078,19.3701172 9.45800781,19.2114258 C9.59716797,18.6376953 9.89501953,18.125 10.3051758,17.7270508 C6.87255859,17.1118164 5.44189453,15.0170898 5.44189453,12.5268555 C5.44189453,11.3183594 5.83984375,10.2075195 6.62109375,9.31152344 C6.12304687,7.83447266 6.66748047,6.56982422 6.74072266,6.38183594 C8.15917969,6.25488281 9.63378906,7.39746094 9.74853516,7.48779297 C10.5541992,7.27050781 11.4746094,7.15576172 12.5048828,7.15576172 C13.5400391,7.15576172 14.4628906,7.27539062 15.2758789,7.49511719 C15.5517578,7.28515625 16.9189453,6.30371094 18.2373047,6.42333984 C18.3081055,6.61132812 18.840332,7.84667969 18.371582,9.30419922 C19.1625977,10.2026367 19.5654297,11.3232422 19.5654297,12.5341797 C19.5654297,15.0292969 18.125,17.1264648 14.6826172,17.7319336 C15.2563477,18.2983398 15.612793,19.0844727 15.612793,19.9536133 L15.612793,22.7001953 C15.6323242,22.9199219 15.612793,23.137207 15.9790039,23.137207 C20.3027344,21.6796875 23.4155273,17.5952148 23.4155273,12.7832031 C23.4155273,6.74804688 18.5229492,1.86279205 12.4902344,1.86279205 Z" id="路径"></path>
                </g>
            </g>
        </g>
    </g>
</svg>