<?xml version="1.0" encoding="UTF-8"?>
<svg width="40px" height="40px" viewBox="0 0 40 40" version="1.1" xmlns="http://www.w3.org/2000/svg" xmlns:xlink="http://www.w3.org/1999/xlink">
    <title>X_未选中_选中_icon</title>
    <defs>
        <circle id="path-1" cx="19.8529412" cy="19.8529412" r="15.6862745"></circle>
        <filter x="-1.6%" y="-1.6%" width="103.2%" height="106.4%" filterUnits="objectBoundingBox" id="filter-2">
            <feOffset dx="0" dy="1" in="SourceAlpha" result="shadowOffsetOuter1"></feOffset>
            <feColorMatrix values="0 0 0 0 0   0 0 0 0 0   0 0 0 0 0  0 0 0 0.1 0" type="matrix" in="shadowOffsetOuter1"></feColorMatrix>
        </filter>
    </defs>
    <g id="设计稿" stroke="none" stroke-width="1" fill="none" fill-rule="evenodd">
        <g id="画板" transform="translate(-223, -47)">
            <g id="X_未选中_选中_icon" transform="translate(223, 47)">
                <circle id="椭圆形" stroke-opacity="0.05" stroke="#000000" stroke-width="0.655524037" fill-opacity="0.361833479" fill="#F1F2F8" cx="20" cy="20" r="19.672238"></circle>
                <g id="椭圆形">
                    <use fill="black" fill-opacity="1" filter="url(#filter-2)" xlink:href="#path-1"></use>
                    <use fill="#FFFFFF" fill-rule="evenodd" xlink:href="#path-1"></use>
                </g>
                <g id="twitter-filledd" opacity="0.849999964" transform="translate(7.5, 7.5)" fill="#000000" fill-rule="nonzero">
                    <rect id="矩形" opacity="0" x="0" y="0" width="25" height="25"></rect>
                    <path d="M22.65625,6.20849609 C21.9091797,6.53076172 21.0961914,6.76269531 20.2587891,6.85302734 C21.1230469,6.33789062 21.7797852,5.52490234 22.0898437,4.55810547 C21.2915039,5.03417969 20.3881836,5.38330078 19.4482422,5.56396484 C18.6865234,4.75097656 17.6049805,4.24804687 16.40625,4.24804687 C14.0991211,4.24804687 12.2436523,6.11816406 12.2436523,8.41308594 C12.2436523,8.73535156 12.2827148,9.05761719 12.3461914,9.36767578 C8.89160156,9.18701172 5.81054687,7.53662109 3.76220703,5.00976562 C3.40087891,5.62988281 3.19580078,6.33789062 3.19580078,7.11181641 C3.19580078,8.55712891 3.93066406,9.83154297 5.05126953,10.5810547 C4.36767578,10.5541992 3.72314453,10.3613281 3.16894531,10.0512695 L3.16894531,10.1025391 C3.16894531,12.1264648 4.59960937,13.8037109 6.50634766,14.1894531 C6.15722656,14.2797852 5.78369141,14.3310547 5.41015625,14.3310547 C5.13916016,14.3310547 4.8828125,14.3041992 4.62402344,14.2675781 C5.15136719,15.9179688 6.68701172,17.1166992 8.515625,17.1557617 C7.08496094,18.2763672 5.29296875,18.9355469 3.34716797,18.9355469 C2.99804687,18.9355469 2.67578125,18.9233398 2.34130859,18.8842773 C4.18701172,20.0683594 6.37695312,20.7519531 8.73535156,20.7519531 C16.3916016,20.7519531 20.5810547,14.4091797 20.5810547,8.90380859 C20.5810547,8.72314453 20.5810547,8.54248047 20.5688477,8.36181641 C21.3793945,7.76855469 22.0898437,7.03369141 22.65625,6.20849609 Z" id="路径"></path>
                </g>
            </g>
        </g>
    </g>
</svg>